# xmcd
#
# Track frame offsets:
#	150
#	18225
#	42185
#
# Disc length: 811 seconds
#
# Revision: 0
# Processed by: cddbd v1.4PL0 Copyright (c) Steve Scherf et al.
# Submitted via: audiograbber 1.81.03
#
DISCID=18032903
DTITLE=Skipper Wise - I Wanna Be With You [CD Single)
DYEAR=1992
DGENRE=Blues
TTITLE0=I Wanna Be With You
TTITLE1=Secrets
TTITLE2=I Wanne Be With You (Instrumental)
EXTD=
EXTT0=
EXTT1=
EXTT2=
PLAYORDER=
